<svg xmlns="http://www.w3.org/2000/svg" width="512" height="512" viewBox="0 0 512 512">
  <defs>
    <linearGradient id="g3" x1="0" y1="0" x2="1" y2="1">
      <stop offset="0%" stop-color="#2563eb"/>
      <stop offset="100%" stop-color="#06b6d4"/>
    </linearGradient>
  </defs>
  <rect width="512" height="512" rx="56" ry="56" fill="#ffffff"/>
  <g transform="translate(156,80)">
    <rect x="0" y="0" rx="30" ry="30" width="200" height="320" fill="#0b1220"/>
    <rect x="14" y="24" rx="20" ry="20" width="172" height="272" fill="url(#g3)"/>
    <rect x="0" y="-24" rx="14" ry="14" width="200" height="48" fill="#0b1220"/>
    <rect x="0" y="320" rx="14" ry="14" width="200" height="48" fill="#0b1220"/>
    <g opacity="0.18">
      <path d="M14,80 L186,36 L186,80 L14,124 Z" fill="#ffffff"/>
      <path d="M14,160 L186,116 L186,160 L14,204 Z" fill="#ffffff"/>
      <path d="M14,240 L186,196 L186,240 L14,284 Z" fill="#ffffff"/>
    </g>
  </g>
</svg>