<svg xmlns="http://www.w3.org/2000/svg" width="1200" height="300" viewBox="0 0 1200 300">
  <defs>
    <linearGradient id="g" x1="0" y1="0" x2="1" y2="1">
      <stop offset="0%" stop-color="#2563eb"/>
      <stop offset="100%" stop-color="#06b6d4"/>
    </linearGradient>
  </defs>
  <rect width="1200" height="300" fill="none"/>
  <g transform="translate(60,25)">
    <g transform="translate(0,0)">
      <rect x="0" y="0" rx="28" ry="28" width="180" height="250" fill="#0b1220"/>
      <rect x="10" y="20" rx="18" ry="18" width="160" height="210" fill="url(#g)"/>
      <rect x="0" y="-16" rx="12" ry="12" width="180" height="40" fill="#0b1220"/>
      <rect x="0" y="226" rx="12" ry="12" width="180" height="40" fill="#0b1220"/>
      <g opacity="0.18">
        <path d="M10,60 L170,20 L170,60 L10,100 Z" fill="#ffffff"/>
        <path d="M10,120 L170,80 L170,120 L10,160 Z" fill="#ffffff"/>
        <path d="M10,180 L170,140 L170,180 L10,220 Z" fill="#ffffff"/>
      </g>
    </g>
    <g transform="translate(230,45)">
      <text x="0" y="95" font-family="Inter, system-ui, -apple-system, Segoe UI, Roboto, Helvetica, Arial, sans-serif" font-size="110" font-weight="800" fill="#0b1220">Barber</text>
      <text x="0" y="200" font-family="Inter, system-ui, -apple-system, Segoe UI, Roboto, Helvetica, Arial, sans-serif" font-size="110" font-weight="800" fill="url(#g)">System</text>
    </g>
  </g>
</svg>